<svg xmlns="http://www.w3.org/2000/svg" xmlns:xlink="http://www.w3.org/1999/xlink" width="60" height="60" viewBox="0 0 200 200" xml:space="preserve"><path d="M82.139,84.506H17.861c-6.236,0-11.29-5.062-11.29-11.312V40.121c0-6.248,3.702-10.208,9.938-10.208h14.885  c0-6.25,4.552-12.42,10.788-12.42h15.636c6.234,0,10.787,6.17,10.787,12.42h14.886c6.235,0,9.938,3.959,9.938,10.208v33.07  C93.43,79.441,88.375,84.506,82.139,84.506z M90.934,39.837c0-2.481-2.479-7.443-7.441-7.443l-17.119,0.05  c0-5.5-4.684-12.454-10.17-12.454H43.798c-5.487,0-10.17,6.954-10.17,12.454l-17.119-0.05c-4.961,0-7.442,4.962-7.442,7.443v34.731  c0,2.479,2.481,7.441,7.442,7.441h66.982c4.962,0,7.442-7.441,7.442-9.924V39.837L90.934,39.837z M61.68,53.402h4.211  c-1.008-5.824-5.197-10.782-11.089-12.28c-6.711-1.706-13.456,1.553-16.593,7.566l-3.532,0.001  c3.421-8.27,12.188-13.005,20.886-10.794c7.355,1.872,12.541,8.176,13.576,15.507h4.422l-5.895,6.168L61.68,53.402z M40.801,58.521  h-4.21c1.008,5.826,5.196,10.783,11.088,12.281c6.584,1.676,13.215-1.492,16.428-7.307h3.578h0.01  c-3.498,8.109-12.172,12.72-20.777,10.534c-7.355-1.873-12.542-8.179-13.577-15.511H28.92l5.895-6.168L40.801,58.521z" fill="white"/></svg>